<svg width="0" height="0" class="hidden"><symbol xmlns="http://www.w3.org/2000/svg" fill="none" viewBox="0 0 24 24" id="icon-film"><path stroke="currentColor" stroke-linecap="round" stroke-linejoin="round" stroke-width="2" d="M19.82 2H4.18A2.18 2.18 0 0 0 2 4.18v15.64A2.18 2.18 0 0 0 4.18 22h15.64A2.18 2.18 0 0 0 22 19.82V4.18A2.18 2.18 0 0 0 19.82 2ZM7 2v20M17 2v20M2 12h20M2 7h5M2 17h5m10 0h5M17 7h5"/></symbol><symbol xmlns="http://www.w3.org/2000/svg" fill="none" viewBox="0 0 12 12" id="icon-search"><path stroke="currentColor" stroke-linecap="round" stroke-linejoin="round" d="M5.5 9.5a4 4 0 1 0 0-8 4 4 0 0 0 0 8Zm5 1L8.325 8.325"/></symbol><symbol xmlns="http://www.w3.org/2000/svg" fill="none" viewBox="0 0 14 14" id="icon-love"><path fill="#FF6B08" d="m7 13.188-.98-.97C2.38 9.03 0 6.88 0 4.248 0 2.097 1.68.435 3.85.435A4.23 4.23 0 0 1 7 1.89 4.224 4.224 0 0 1 10.15.436C12.32.436 14 2.099 14 4.247c0 2.634-2.38 4.783-6.02 7.97l-.98.971Z"/></symbol><symbol xmlns="http://www.w3.org/2000/svg" id="icon-close" viewBox="0 0 32 32"><path d="m24.956 8.929-1.885-1.885L16 14.115 8.929 7.044 7.044 8.929 14.115 16l-7.071 7.071 1.885 1.885L16 17.885l7.071 7.071 1.885-1.885L17.885 16z"/></symbol><symbol xmlns="http://www.w3.org/2000/svg" id="icon-arrow-left" viewBox="0 0 24 24"><path fill="currentColor" d="M20.328 11v2H7.5l3.243 3.243-1.415 1.414L3.672 12l5.656-5.657 1.415 1.414L7.5 11h12.828Z"/></symbol><symbol xmlns="http://www.w3.org/2000/svg" id="icon-arrow-right" viewBox="0 0 24 24"><path fill="currentColor" d="m15.038 6.343-1.411 1.418 3.27 3.255-13.605.013.002 2 13.568-.013-3.215 3.23 1.417 1.41 5.644-5.67-5.67-5.643Z"/></symbol><symbol xmlns="http://www.w3.org/2000/svg" id="icon-dots" viewBox="0 0 10 3"><path d="M.785 1.297c0-.219.074-.402.223-.55.148-.153.35-.23.603-.23.258 0 .46.077.604.23a.748.748 0 0 1 .223.55.748.748 0 0 1-.223.55c-.145.15-.346.223-.604.223-.254 0-.455-.074-.603-.222a.748.748 0 0 1-.223-.551Zm3.34 0c0-.219.074-.402.223-.55.148-.153.35-.23.603-.23.258 0 .46.077.604.23a.748.748 0 0 1 .222.55.748.748 0 0 1-.222.55c-.145.15-.346.223-.604.223-.254 0-.455-.074-.603-.222a.748.748 0 0 1-.223-.551Zm3.34 0c0-.219.074-.402.223-.55.148-.153.35-.23.603-.23.258 0 .459.077.604.23a.748.748 0 0 1 .222.55.748.748 0 0 1-.222.55c-.145.15-.346.223-.604.223-.254 0-.455-.074-.604-.222a.748.748 0 0 1-.222-.551Z"/></symbol></svg>