<svg width="0" height="0" class="hidden">
  <symbol xmlns="http://www.w3.org/2000/svg" fill="none" viewBox="0 0 24 24" id="icon-film">
    <path stroke="currentColor" stroke-linecap="round" stroke-linejoin="round" stroke-width="2" d="M19.82 2H4.18A2.18 2.18 0 0 0 2 4.18v15.64A2.18 2.18 0 0 0 4.18 22h15.64A2.18 2.18 0 0 0 22 19.82V4.18A2.18 2.18 0 0 0 19.82 2ZM7 2v20M17 2v20M2 12h20M2 7h5M2 17h5M17 17h5M17 7h5"></path>
  </symbol>
  <symbol xmlns="http://www.w3.org/2000/svg" fill="none" viewBox="0 0 12 12" id="icon-search">
    <path stroke="currentColor" stroke-linecap="round" stroke-linejoin="round" d="M5.5 9.5a4 4 0 1 0 0-8 4 4 0 0 0 0 8ZM10.5 10.5 8.325 8.325"/>
  </symbol>
  <symbol xmlns="http://www.w3.org/2000/svg" fill="none" viewBox="0 0 14 14" id="icon-love">
    <path fill="#FF6B08" d="m7 13.188-.98-.97C2.38 9.03 0 6.88 0 4.248 0 2.097 1.68.435 3.85.435 5.04.436 6.23.99 7 1.89A4.224 4.224 0 0 1 10.15.436C12.32.436 14 2.099 14 4.247c0 2.634-2.38 4.783-6.02 7.97l-.98.971Z"/>
  </symbol>
  <symbol xmlns="http://www.w3.org/2000/svg" id="icon-close" viewBox="0 0 32 32">
    <path d="M24.956 8.929l-1.885-1.885-7.071 7.071-7.071-7.071-1.885 1.885 7.071 7.071-7.071 7.071 1.885 1.885 7.071-7.071 7.071 7.071 1.885-1.885-7.071-7.071z"></path>
  </symbol> 
  <symbol xmlns="http://www.w3.org/2000/svg" id="icon-github" viewBox="0 0 32 32">
    <path d="M16 0.395c-8.836 0-16 7.163-16 16 0 7.069 4.585 13.067 10.942 15.182 0.8 0.148 1.094-0.347 1.094-0.77 0-0.381-0.015-1.642-0.022-2.979-4.452 0.968-5.391-1.888-5.391-1.888-0.728-1.849-1.776-2.341-1.776-2.341-1.452-0.993 0.11-0.973 0.11-0.973 1.606 0.113 2.452 1.649 2.452 1.649 1.427 2.446 3.743 1.739 4.656 1.33 0.143-1.034 0.558-1.74 1.016-2.14-3.554-0.404-7.29-1.777-7.29-7.907 0-1.747 0.625-3.174 1.649-4.295-0.166-0.403-0.714-2.030 0.155-4.234 0 0 1.344-0.43 4.401 1.64 1.276-0.355 2.645-0.532 4.005-0.539 1.359 0.006 2.729 0.184 4.008 0.539 3.054-2.070 4.395-1.64 4.395-1.64 0.871 2.204 0.323 3.831 0.157 4.234 1.026 1.12 1.647 2.548 1.647 4.295 0 6.145-3.743 7.498-7.306 7.895 0.574 0.497 1.085 1.47 1.085 2.963 0 2.141-0.019 3.864-0.019 4.391 0 0.426 0.288 0.925 1.099 0.768 6.354-2.118 10.933-8.113 10.933-15.18 0-8.837-7.164-16-16-16z"></path>
  </symbol>
  <symbol xmlns="http://www.w3.org/2000/svg" id="icon-arrow-left" viewBox="0 0 24 24">
    <path fill="currentColor" d="M20.328 11v2H7.5l3.243 3.243-1.415 1.414L3.672 12l5.656-5.657 1.415 1.414L7.5 11h12.828Z"/></path>
  </symbol>
  <symbol xmlns="http://www.w3.org/2000/svg" id="icon-arrow-right" viewBox="0 0 24 24">
    <path fill="currentColor" d="m15.038 6.343-1.411 1.418 3.27 3.255-13.605.013.002 2 13.568-.013-3.215 3.23 1.417 1.41 5.644-5.67-5.67-5.643Z"/></path>
  </symbol>
  <symbol xmlns="http://www.w3.org/2000/svg" id="icon-dots" viewBox="0 0 10 3">
    <path fill="#000" d="M.785 1.297c0-.219.074-.402.223-.55.148-.153.35-.23.603-.23.258 0 .46.077.604.23a.748.748 0 0 1 .223.55.748.748 0 0 1-.223.55c-.145.15-.346.223-.604.223-.254 0-.455-.074-.603-.222a.748.748 0 0 1-.223-.551Zm3.34 0c0-.219.074-.402.223-.55.148-.153.35-.23.603-.23.258 0 .46.077.604.23a.748.748 0 0 1 .222.55.748.748 0 0 1-.222.55c-.145.15-.346.223-.604.223-.254 0-.455-.074-.603-.222a.748.748 0 0 1-.223-.551Zm3.34 0c0-.219.074-.402.223-.55.148-.153.35-.23.603-.23.258 0 .459.077.604.23a.748.748 0 0 1 .222.55.748.748 0 0 1-.222.55c-.145.15-.346.223-.604.223-.254 0-.455-.074-.604-.222a.748.748 0 0 1-.222-.551Z"/></path>
  </symbol> 
</svg>